# Blender v2.79 (sub 0) OBJ File: 'Folha e Bolinha.blend'
# www.blender.org
mtllib Bolinha.mtl
o BolinhadePapel_Cubo
v -2.288344 -0.284269 0.240122
v -2.349032 0.284269 0.284269
v -2.349032 -0.284269 -0.284269
v -2.349032 0.284269 -0.103522
v -1.780495 -0.284269 0.284269
v -1.891348 0.224748 0.207938
v -1.780495 -0.284268 -0.284268
v -1.840127 0.284268 -0.200087
v -2.412920 -0.348156 0.000000
v -2.412920 0.000000 0.348156
v -2.250906 0.188450 0.000000
v -2.412920 0.000000 -0.348156
v -2.064763 -0.487213 -0.090333
v -2.064763 0.348156 -0.348156
v -1.716607 0.091706 -0.274687
v -1.716607 -0.348156 0.000000
v -1.716607 0.348156 0.000000
v -1.716607 0.000000 0.348156
v -2.064763 -0.301995 0.312890
v -2.064763 0.348156 0.348156
v -2.064763 0.492367 0.000000
v -2.064763 -0.425598 0.000000
v -2.064763 -0.144604 0.461359
v -1.572396 0.000000 0.000000
v -2.064763 0.091706 -0.418898
v -2.557131 0.000000 0.000000
vt 0.614246 0.540814
vt 0.506678 0.540941
vt 0.507190 0.511008
vt 0.582881 0.441004
vt 0.610865 0.336330
vt 0.628033 0.273202
vt 0.705106 0.305316
vt 0.708584 0.374121
vt 0.284980 0.373054
vt 0.196556 0.363415
vt 0.237249 0.287863
vt 0.280089 0.265032
vt 0.755160 0.553057
vt 0.614246 0.491771
vt 0.665786 0.420969
vt 0.755160 0.440064
vt 0.502515 0.343047
vt 0.400127 0.347602
vt 0.410981 0.262580
vt 0.495231 0.247979
vt 0.400127 0.540814
vt 0.507190 0.622352
vt 0.431476 0.640934
vt 0.777128 0.288544
vt 0.715371 0.203759
vt 0.803444 0.196556
vt 0.799013 0.265352
vt 0.431476 0.441004
vt 0.610865 0.328593
vt 0.566380 0.261015
vt 0.604929 0.405448
vt 0.503621 0.372152
vt 0.432861 0.420969
vt 0.495574 0.196556
vt 0.610865 0.209347
vt 0.371459 0.271200
vt 0.346941 0.196556
vt 0.400127 0.233875
vt 0.666494 0.615916
vt 0.621173 0.535989
vt 0.398732 0.352860
vt 0.400127 0.423241
vt 0.284868 0.432986
vt 0.803444 0.385904
vt 0.196556 0.555734
vt 0.396677 0.526409
vt 0.396677 0.629828
vt 0.287878 0.623441
vt 0.262510 0.462293
vt 0.347427 0.432986
vt 0.487225 0.420969
vt 0.729278 0.732743
vt 0.614246 0.720399
vt 0.644018 0.615916
vt 0.729278 0.647205
vt 0.716898 0.783920
vt 0.618165 0.803444
vt 0.582881 0.640934
vn -0.7980 0.6009 0.0461
vn 0.4532 0.3849 -0.8040
vn 0.6923 0.5103 0.5103
vn -0.2343 0.2343 0.9435
vn 0.1552 -0.9377 0.3110
vn -0.6127 0.7896 -0.0346
vn 0.4981 0.7098 0.4981
vn 0.4027 0.8220 -0.4027
vn -0.6007 0.7982 0.0450
vn -0.1972 -0.9141 0.3543
vn -0.3859 -0.9198 -0.0714
vn 0.3859 -0.9198 -0.0714
vn -0.3951 -0.5421 0.7416
vn 0.3036 -0.4482 0.8408
vn 0.3896 0.3896 0.8345
vn 0.8881 -0.3251 0.3251
vn 0.8831 -0.2485 -0.3980
vn 0.7894 0.4487 -0.4189
vn 0.0277 -0.3184 -0.9476
vn 0.1057 -0.4051 -0.9082
vn -0.4830 0.4830 -0.7303
vn -0.8881 -0.3251 -0.3251
vn -0.8097 -0.4150 0.4150
vn -0.7892 0.6131 -0.0354
usemtl TexBolinha
s off
f 26/1/1 11/2/1 4/3/1 12/4/1
f 25/5/2 14/6/2 8/7/2 15/8/2
f 24/9/3 17/10/3 6/11/3 18/12/3
f 23/13/4 20/14/4 2/15/4 10/16/4
f 22/17/5 16/18/5 5/19/5 19/20/5
f 21/21/6 11/2/6 2/22/6 20/23/6
f 17/24/7 21/25/7 20/26/7 6/27/7
f 8/7/8 14/6/8 21/25/8 17/24/8
f 14/28/9 4/3/9 11/2/9 21/21/9
f 9/29/10 22/17/10 19/20/10 1/30/10
f 3/31/11 13/32/11 22/17/11 9/29/11
f 13/32/12 7/33/12 16/18/12 22/17/12
f 19/20/13 23/34/13 10/35/13 1/30/13
f 5/36/14 18/12/14 23/37/14 19/38/14
f 18/39/15 6/40/15 20/14/15 23/13/15
f 16/41/16 24/9/16 18/12/16 5/36/16
f 7/42/17 15/43/17 24/9/17 16/41/17
f 15/8/18 8/7/18 17/24/18 24/44/18
f 13/45/19 25/46/19 15/47/19 7/48/19
f 3/49/20 12/50/20 25/46/20 13/45/20
f 12/4/21 4/3/21 14/28/21 25/51/21
f 9/52/22 26/53/22 12/54/22 3/55/22
f 1/56/23 10/57/23 26/53/23 9/52/23
f 10/58/24 2/22/24 11/2/24 26/1/24
